{
	"asset":{
		"generator":"Khronos glTF Blender I/O v4.4.56",
		"version":"2.0"
	},
	"scene":0,
	"scenes":[
		{
			"name":"Scene",
			"nodes":[
				0
			]
		}
	],
	"nodes":[
		{
			"mesh":0,
			"name":"building-001",
			"rotation":[
				-0.001715785707347095,
				0.9374443888664246,
				-0.3455289304256439,
				0.0424836128950119
			],
			"scale":[
				0.5174750089645386,
				0.48788973689079285,
				0.03147829696536064
			]
		}
	],
	"materials":[
		{
			"doubleSided":true,
			"name":"color-building-001",
			"normalTexture":{
				"index":0,
				"scale":0.10000000149011612
			},
			"pbrMetallicRoughness":{
				"baseColorTexture":{
					"index":1
				},
				"metallicFactor":0,
				"roughnessFactor":0.5
			}
		}
	],
	"meshes":[
		{
			"name":"Cube.004",
			"primitives":[
				{
					"attributes":{
						"POSITION":0,
						"NORMAL":1,
						"TEXCOORD_0":2
					},
					"indices":3,
					"material":0
				}
			]
		}
	],
	"textures":[
		{
			"sampler":0,
			"source":0
		},
		{
			"sampler":0,
			"source":1
		}
	],
	"images":[
		{
			"mimeType":"image/png",
			"name":"normal-building-001",
			"uri":"normal-building-001.png"
		},
		{
			"mimeType":"image/png",
			"name":"color-building-001",
			"uri":"color-building-001.png"
		}
	],
	"accessors":[
		{
			"bufferView":0,
			"componentType":5126,
			"count":2978,
			"max":[
				2.4913058280944824,
				4.230939865112305,
				33.385318756103516
			],
			"min":[
				-2.5056824684143066,
				-3.4688994884490967,
				-48.76068878173828
			],
			"type":"VEC3"
		},
		{
			"bufferView":1,
			"componentType":5126,
			"count":2978,
			"type":"VEC3"
		},
		{
			"bufferView":2,
			"componentType":5126,
			"count":2978,
			"type":"VEC2"
		},
		{
			"bufferView":3,
			"componentType":5123,
			"count":4572,
			"type":"SCALAR"
		}
	],
	"bufferViews":[
		{
			"buffer":0,
			"byteLength":35736,
			"byteOffset":0,
			"target":34962
		},
		{
			"buffer":0,
			"byteLength":35736,
			"byteOffset":35736,
			"target":34962
		},
		{
			"buffer":0,
			"byteLength":23824,
			"byteOffset":71472,
			"target":34962
		},
		{
			"buffer":0,
			"byteLength":9144,
			"byteOffset":95296,
			"target":34963
		}
	],
	"samplers":[
		{
			"magFilter":9729,
			"minFilter":9987
		}
	],
	"buffers":[
		{
			"byteLength":104440,
			"uri":"ie.bin"
		}
	]
}
