# Blender 4.4.3
# www.blender.org
mtllib Good.mtl
o 立方体.001
v -0.940367 0.250000 -0.782765
v -0.940367 0.450000 -0.782765
v -0.817235 0.250000 -0.940367
v -0.817235 0.450000 -0.940367
v -0.782765 0.250000 -0.659633
v -0.782765 0.450000 -0.659633
v -0.659633 0.250000 -0.817235
v -0.659633 0.450000 -0.817235
v -1.063500 -0.120000 -0.625163
v -1.063500 0.280000 -0.625163
v -0.817235 -0.120000 -0.940367
v -0.817235 0.280000 -0.940367
v -0.748295 -0.120000 -0.378898
v -0.748295 0.280000 -0.378898
v -0.502031 -0.120000 -0.694103
v -0.502031 0.280000 -0.694103
vn -0.7880 -0.0000 -0.6157
vn 0.6157 -0.0000 -0.7880
vn 0.7880 -0.0000 0.6157
vn -0.6157 -0.0000 0.7880
vn -0.0000 -1.0000 -0.0000
vn -0.0000 1.0000 -0.0000
vt 0.333295 0.000115
vt 0.166705 0.166705
vt 0.166705 0.000115
vt 0.333295 0.166705
vt 0.166705 0.333295
vt 0.333295 0.333295
vt 0.166705 0.499885
vt 0.333295 0.499885
vt 0.166705 0.666474
vt 0.000115 0.499885
vt 0.000115 0.333295
vt 0.499885 0.333295
vt 0.833295 0.000115
vt 0.666705 0.166705
vt 0.666705 0.000115
vt 0.833295 0.166705
vt 0.666705 0.333295
vt 0.833295 0.333295
vt 0.666705 0.499885
vt 0.833295 0.499885
vt 0.666705 0.666474
vt 0.500115 0.499885
vt 0.500115 0.333295
vt 0.999885 0.333295
vt 0.333295 0.666474
vt 0.499885 0.499885
vt 0.833295 0.666474
vt 0.999885 0.499885
s 0
usemtl マテリアル
f 2/1/1 3/2/1 1/3/1
f 4/4/2 7/5/2 3/2/2
f 8/6/3 5/7/3 7/5/3
f 6/8/4 1/9/4 5/7/4
f 7/5/5 1/10/5 3/11/5
f 4/12/6 6/8/6 8/6/6
f 10/13/1 11/14/1 9/15/1
f 12/16/2 15/17/2 11/14/2
f 16/18/3 13/19/3 15/17/3
f 14/20/4 9/21/4 13/19/4
f 15/17/5 9/22/5 11/23/5
f 12/24/6 14/20/6 16/18/6
f 2/1/1 4/4/1 3/2/1
f 4/4/2 8/6/2 7/5/2
f 8/6/3 6/8/3 5/7/3
f 6/8/4 2/25/4 1/9/4
f 7/5/5 5/7/5 1/10/5
f 4/12/6 2/26/6 6/8/6
f 10/13/1 12/16/1 11/14/1
f 12/16/2 16/18/2 15/17/2
f 16/18/3 14/20/3 13/19/3
f 14/20/4 10/27/4 9/21/4
f 15/17/5 13/19/5 9/22/5
f 12/24/6 10/28/6 14/20/6
