{
	"asset":{
		"generator":"Khronos glTF Blender I/O v4.4.56",
		"version":"2.0"
	},
	"scene":0,
	"scenes":[
		{
			"name":"Scene",
			"nodes":[
				0
			]
		}
	],
	"nodes":[
		{
			"mesh":0,
			"name":"\u7403.047"
		}
	],
	"animations":[
		{
			"channels":[
				{
					"sampler":0,
					"target":{
						"node":0,
						"path":"translation"
					}
				},
				{
					"sampler":1,
					"target":{
						"node":0,
						"path":"rotation"
					}
				},
				{
					"sampler":2,
					"target":{
						"node":0,
						"path":"scale"
					}
				}
			],
			"name":"\u7403.014\u30a2\u30af\u30b7\u30e7\u30f3.046",
			"samplers":[
				{
					"input":36,
					"interpolation":"LINEAR",
					"output":37
				},
				{
					"input":36,
					"interpolation":"LINEAR",
					"output":38
				},
				{
					"input":36,
					"interpolation":"LINEAR",
					"output":39
				}
			]
		},
		{
			"channels":[
				{
					"sampler":0,
					"target":{
						"node":0,
						"path":"translation"
					}
				},
				{
					"sampler":1,
					"target":{
						"node":0,
						"path":"rotation"
					}
				},
				{
					"sampler":2,
					"target":{
						"node":0,
						"path":"scale"
					}
				}
			],
			"name":"\u7403.047\u30a2\u30af\u30b7\u30e7\u30f3",
			"samplers":[
				{
					"input":40,
					"interpolation":"STEP",
					"output":41
				},
				{
					"input":40,
					"interpolation":"STEP",
					"output":42
				},
				{
					"input":43,
					"interpolation":"LINEAR",
					"output":44
				}
			]
		}
	],
	"materials":[
		{
			"doubleSided":true,
			"name":"\u30de\u30c6\u30ea\u30a2\u30eb.006",
			"pbrMetallicRoughness":{
				"baseColorTexture":{
					"index":0
				},
				"metallicFactor":0,
				"roughnessFactor":0.5
			}
		},
		{
			"doubleSided":true,
			"name":"\u30de\u30c6\u30ea\u30a2\u30eb.007",
			"pbrMetallicRoughness":{
				"baseColorTexture":{
					"index":1
				},
				"metallicFactor":0,
				"roughnessFactor":0.5
			}
		},
		{
			"doubleSided":true,
			"name":"\u30de\u30c6\u30ea\u30a2\u30eb.001",
			"pbrMetallicRoughness":{
				"baseColorTexture":{
					"index":2
				},
				"metallicFactor":0,
				"roughnessFactor":0.5
			}
		},
		{
			"doubleSided":true,
			"name":"\u30de\u30c6\u30ea\u30a2\u30eb.003",
			"pbrMetallicRoughness":{
				"baseColorTexture":{
					"index":3
				},
				"metallicFactor":0,
				"roughnessFactor":0.5
			}
		},
		{
			"doubleSided":true,
			"name":"\u30de\u30c6\u30ea\u30a2\u30eb",
			"pbrMetallicRoughness":{
				"baseColorTexture":{
					"index":4
				},
				"metallicFactor":0,
				"roughnessFactor":0.5
			}
		},
		{
			"doubleSided":true,
			"name":"\u30de\u30c6\u30ea\u30a2\u30eb.005",
			"pbrMetallicRoughness":{
				"baseColorTexture":{
					"index":5
				},
				"metallicFactor":0,
				"roughnessFactor":0.5
			}
		},
		{
			"doubleSided":true,
			"name":"\u30de\u30c6\u30ea\u30a2\u30eb.004",
			"pbrMetallicRoughness":{
				"baseColorTexture":{
					"index":6
				},
				"metallicFactor":0,
				"roughnessFactor":0.5
			}
		},
		{
			"doubleSided":true,
			"name":"\u30de\u30c6\u30ea\u30a2\u30eb.008",
			"pbrMetallicRoughness":{
				"baseColorTexture":{
					"index":7
				},
				"metallicFactor":0,
				"roughnessFactor":0.5
			}
		},
		{
			"doubleSided":true,
			"name":"\u30de\u30c6\u30ea\u30a2\u30eb.002",
			"pbrMetallicRoughness":{
				"baseColorTexture":{
					"index":8
				},
				"metallicFactor":0,
				"roughnessFactor":0.5
			}
		}
	],
	"meshes":[
		{
			"name":"\u7403.047",
			"primitives":[
				{
					"attributes":{
						"POSITION":0,
						"NORMAL":1,
						"TEXCOORD_0":2
					},
					"indices":3,
					"material":0
				},
				{
					"attributes":{
						"POSITION":4,
						"NORMAL":5,
						"TEXCOORD_0":6
					},
					"indices":7,
					"material":1
				},
				{
					"attributes":{
						"POSITION":8,
						"NORMAL":9,
						"TEXCOORD_0":10
					},
					"indices":11,
					"material":2
				},
				{
					"attributes":{
						"POSITION":12,
						"NORMAL":13,
						"TEXCOORD_0":14
					},
					"indices":15,
					"material":3
				},
				{
					"attributes":{
						"POSITION":16,
						"NORMAL":17,
						"TEXCOORD_0":18
					},
					"indices":19,
					"material":4
				},
				{
					"attributes":{
						"POSITION":20,
						"NORMAL":21,
						"TEXCOORD_0":22
					},
					"indices":23,
					"material":5
				},
				{
					"attributes":{
						"POSITION":24,
						"NORMAL":25,
						"TEXCOORD_0":26
					},
					"indices":27,
					"material":6
				},
				{
					"attributes":{
						"POSITION":28,
						"NORMAL":29,
						"TEXCOORD_0":30
					},
					"indices":31,
					"material":7
				},
				{
					"attributes":{
						"POSITION":32,
						"NORMAL":33,
						"TEXCOORD_0":34
					},
					"indices":35,
					"material":8
				}
			]
		}
	],
	"textures":[
		{
			"sampler":0,
			"source":0
		},
		{
			"sampler":0,
			"source":1
		},
		{
			"sampler":0,
			"source":2
		},
		{
			"sampler":0,
			"source":3
		},
		{
			"sampler":0,
			"source":4
		},
		{
			"sampler":0,
			"source":5
		},
		{
			"sampler":0,
			"source":6
		},
		{
			"sampler":0,
			"source":7
		},
		{
			"sampler":0,
			"source":8
		}
	],
	"images":[
		{
			"mimeType":"image/png",
			"name":"propellerUV-1",
			"uri":"propellerUV-1.png"
		},
		{
			"mimeType":"image/png",
			"name":"frameUV",
			"uri":"frameUV.png"
		},
		{
			"mimeType":"image/png",
			"name":"body",
			"uri":"body.png"
		},
		{
			"mimeType":"image/png",
			"name":"skydome",
			"uri":"skydome.png"
		},
		{
			"mimeType":"image/png",
			"name":"frameUV-1",
			"uri":"frameUV-1.png"
		},
		{
			"mimeType":"image/png",
			"name":"frameUV-2",
			"uri":"frameUV-2.png"
		},
		{
			"mimeType":"image/png",
			"name":"y",
			"uri":"y.png"
		},
		{
			"mimeType":"image/png",
			"name":"propellerUV",
			"uri":"propellerUV.png"
		},
		{
			"mimeType":"image/png",
			"name":"propellerUV-2",
			"uri":"propellerUV-2.png"
		}
	],
	"accessors":[
		{
			"bufferView":0,
			"componentType":5126,
			"count":881,
			"max":[
				2.6909146308898926,
				0.8072949051856995,
				2.691812038421631
			],
			"min":[
				-2.692098617553711,
				-0.8089380860328674,
				-2.691202163696289
			],
			"type":"VEC3"
		},
		{
			"bufferView":1,
			"componentType":5126,
			"count":881,
			"type":"VEC3"
		},
		{
			"bufferView":2,
			"componentType":5126,
			"count":881,
			"type":"VEC2"
		},
		{
			"bufferView":3,
			"componentType":5123,
			"count":2700,
			"type":"SCALAR"
		},
		{
			"bufferView":4,
			"componentType":5126,
			"count":468,
			"max":[
				8.830810546875,
				0.7584786415100098,
				8.34579849243164
			],
			"min":[
				1.9031935930252075,
				-0.7648979425430298,
				1.4181782007217407
			],
			"type":"VEC3"
		},
		{
			"bufferView":5,
			"componentType":5126,
			"count":468,
			"type":"VEC3"
		},
		{
			"bufferView":6,
			"componentType":5126,
			"count":468,
			"type":"VEC2"
		},
		{
			"bufferView":7,
			"componentType":5123,
			"count":1176,
			"type":"SCALAR"
		},
		{
			"bufferView":8,
			"componentType":5126,
			"count":219,
			"max":[
				6.403217315673828,
				2.155871629714966,
				2.042038679122925
			],
			"min":[
				-6.066211700439453,
				-1.6507608890533447,
				-2.042018413543701
			],
			"type":"VEC3"
		},
		{
			"bufferView":9,
			"componentType":5126,
			"count":219,
			"type":"VEC3"
		},
		{
			"bufferView":10,
			"componentType":5126,
			"count":219,
			"type":"VEC2"
		},
		{
			"bufferView":11,
			"componentType":5123,
			"count":576,
			"type":"SCALAR"
		},
		{
			"bufferView":12,
			"componentType":5126,
			"count":468,
			"max":[
				-1.8436795473098755,
				0.7584786415100098,
				-1.418157696723938
			],
			"min":[
				-8.771296501159668,
				-0.7648979425430298,
				-8.345778465270996
			],
			"type":"VEC3"
		},
		{
			"bufferView":13,
			"componentType":5126,
			"count":468,
			"type":"VEC3"
		},
		{
			"bufferView":14,
			"componentType":5126,
			"count":468,
			"type":"VEC2"
		},
		{
			"bufferView":15,
			"componentType":5123,
			"count":1176,
			"type":"SCALAR"
		},
		{
			"bufferView":16,
			"componentType":5126,
			"count":468,
			"max":[
				-1.8401814699172974,
				0.7584786415100098,
				8.349223136901855
			],
			"min":[
				-8.767802238464355,
				-0.7648979425430298,
				1.4216059446334839
			],
			"type":"VEC3"
		},
		{
			"bufferView":17,
			"componentType":5126,
			"count":468,
			"type":"VEC3"
		},
		{
			"bufferView":18,
			"componentType":5126,
			"count":468,
			"type":"VEC2"
		},
		{
			"bufferView":19,
			"componentType":5123,
			"count":1176,
			"type":"SCALAR"
		},
		{
			"bufferView":20,
			"componentType":5126,
			"count":468,
			"max":[
				8.827353477478027,
				0.7584786415100098,
				-1.421634316444397
			],
			"min":[
				1.8997327089309692,
				-0.7648979425430298,
				-8.349250793457031
			],
			"type":"VEC3"
		},
		{
			"bufferView":21,
			"componentType":5126,
			"count":468,
			"type":"VEC3"
		},
		{
			"bufferView":22,
			"componentType":5126,
			"count":468,
			"type":"VEC2"
		},
		{
			"bufferView":23,
			"componentType":5123,
			"count":1176,
			"type":"SCALAR"
		},
		{
			"bufferView":24,
			"componentType":5126,
			"count":884,
			"max":[
				2.688488483428955,
				0.8072805404663086,
				2.6888909339904785
			],
			"min":[
				-5.927469253540039,
				-0.8089524507522583,
				-5.402562618255615
			],
			"type":"VEC3"
		},
		{
			"bufferView":25,
			"componentType":5126,
			"count":884,
			"type":"VEC3"
		},
		{
			"bufferView":26,
			"componentType":5126,
			"count":884,
			"type":"VEC2"
		},
		{
			"bufferView":27,
			"componentType":5123,
			"count":2700,
			"type":"SCALAR"
		},
		{
			"bufferView":28,
			"componentType":5126,
			"count":881,
			"max":[
				2.6916894912719727,
				0.8072949051856995,
				2.6913599967956543
			],
			"min":[
				-2.692246437072754,
				-0.8089380860328674,
				-2.6925759315490723
			],
			"type":"VEC3"
		},
		{
			"bufferView":29,
			"componentType":5126,
			"count":881,
			"type":"VEC3"
		},
		{
			"bufferView":30,
			"componentType":5126,
			"count":881,
			"type":"VEC2"
		},
		{
			"bufferView":31,
			"componentType":5123,
			"count":2700,
			"type":"SCALAR"
		},
		{
			"bufferView":32,
			"componentType":5126,
			"count":884,
			"max":[
				-3.0902552604675293,
				0.8072949051856995,
				8.05152416229248
			],
			"min":[
				-8.454670906066895,
				-0.8089380860328674,
				2.687107563018799
			],
			"type":"VEC3"
		},
		{
			"bufferView":33,
			"componentType":5126,
			"count":884,
			"type":"VEC3"
		},
		{
			"bufferView":34,
			"componentType":5126,
			"count":884,
			"type":"VEC2"
		},
		{
			"bufferView":35,
			"componentType":5123,
			"count":2700,
			"type":"SCALAR"
		},
		{
			"bufferView":36,
			"componentType":5126,
			"count":1,
			"max":[
				0.20833333333333334
			],
			"min":[
				0.20833333333333334
			],
			"type":"SCALAR"
		},
		{
			"bufferView":37,
			"componentType":5126,
			"count":1,
			"type":"VEC3"
		},
		{
			"bufferView":38,
			"componentType":5126,
			"count":1,
			"type":"VEC4"
		},
		{
			"bufferView":39,
			"componentType":5126,
			"count":1,
			"type":"VEC3"
		},
		{
			"bufferView":40,
			"componentType":5126,
			"count":2,
			"max":[
				1.625
			],
			"min":[
				0
			],
			"type":"SCALAR"
		},
		{
			"bufferView":41,
			"componentType":5126,
			"count":2,
			"type":"VEC3"
		},
		{
			"bufferView":42,
			"componentType":5126,
			"count":2,
			"type":"VEC4"
		},
		{
			"bufferView":43,
			"componentType":5126,
			"count":40,
			"max":[
				1.625
			],
			"min":[
				0
			],
			"type":"SCALAR"
		},
		{
			"bufferView":44,
			"componentType":5126,
			"count":40,
			"type":"VEC3"
		}
	],
	"bufferViews":[
		{
			"buffer":0,
			"byteLength":10572,
			"byteOffset":0,
			"target":34962
		},
		{
			"buffer":0,
			"byteLength":10572,
			"byteOffset":10572,
			"target":34962
		},
		{
			"buffer":0,
			"byteLength":7048,
			"byteOffset":21144,
			"target":34962
		},
		{
			"buffer":0,
			"byteLength":5400,
			"byteOffset":28192,
			"target":34963
		},
		{
			"buffer":0,
			"byteLength":5616,
			"byteOffset":33592,
			"target":34962
		},
		{
			"buffer":0,
			"byteLength":5616,
			"byteOffset":39208,
			"target":34962
		},
		{
			"buffer":0,
			"byteLength":3744,
			"byteOffset":44824,
			"target":34962
		},
		{
			"buffer":0,
			"byteLength":2352,
			"byteOffset":48568,
			"target":34963
		},
		{
			"buffer":0,
			"byteLength":2628,
			"byteOffset":50920,
			"target":34962
		},
		{
			"buffer":0,
			"byteLength":2628,
			"byteOffset":53548,
			"target":34962
		},
		{
			"buffer":0,
			"byteLength":1752,
			"byteOffset":56176,
			"target":34962
		},
		{
			"buffer":0,
			"byteLength":1152,
			"byteOffset":57928,
			"target":34963
		},
		{
			"buffer":0,
			"byteLength":5616,
			"byteOffset":59080,
			"target":34962
		},
		{
			"buffer":0,
			"byteLength":5616,
			"byteOffset":64696,
			"target":34962
		},
		{
			"buffer":0,
			"byteLength":3744,
			"byteOffset":70312,
			"target":34962
		},
		{
			"buffer":0,
			"byteLength":2352,
			"byteOffset":74056,
			"target":34963
		},
		{
			"buffer":0,
			"byteLength":5616,
			"byteOffset":76408,
			"target":34962
		},
		{
			"buffer":0,
			"byteLength":5616,
			"byteOffset":82024,
			"target":34962
		},
		{
			"buffer":0,
			"byteLength":3744,
			"byteOffset":87640,
			"target":34962
		},
		{
			"buffer":0,
			"byteLength":2352,
			"byteOffset":91384,
			"target":34963
		},
		{
			"buffer":0,
			"byteLength":5616,
			"byteOffset":93736,
			"target":34962
		},
		{
			"buffer":0,
			"byteLength":5616,
			"byteOffset":99352,
			"target":34962
		},
		{
			"buffer":0,
			"byteLength":3744,
			"byteOffset":104968,
			"target":34962
		},
		{
			"buffer":0,
			"byteLength":2352,
			"byteOffset":108712,
			"target":34963
		},
		{
			"buffer":0,
			"byteLength":10608,
			"byteOffset":111064,
			"target":34962
		},
		{
			"buffer":0,
			"byteLength":10608,
			"byteOffset":121672,
			"target":34962
		},
		{
			"buffer":0,
			"byteLength":7072,
			"byteOffset":132280,
			"target":34962
		},
		{
			"buffer":0,
			"byteLength":5400,
			"byteOffset":139352,
			"target":34963
		},
		{
			"buffer":0,
			"byteLength":10572,
			"byteOffset":144752,
			"target":34962
		},
		{
			"buffer":0,
			"byteLength":10572,
			"byteOffset":155324,
			"target":34962
		},
		{
			"buffer":0,
			"byteLength":7048,
			"byteOffset":165896,
			"target":34962
		},
		{
			"buffer":0,
			"byteLength":5400,
			"byteOffset":172944,
			"target":34963
		},
		{
			"buffer":0,
			"byteLength":10608,
			"byteOffset":178344,
			"target":34962
		},
		{
			"buffer":0,
			"byteLength":10608,
			"byteOffset":188952,
			"target":34962
		},
		{
			"buffer":0,
			"byteLength":7072,
			"byteOffset":199560,
			"target":34962
		},
		{
			"buffer":0,
			"byteLength":5400,
			"byteOffset":206632,
			"target":34963
		},
		{
			"buffer":0,
			"byteLength":4,
			"byteOffset":212032
		},
		{
			"buffer":0,
			"byteLength":12,
			"byteOffset":212036
		},
		{
			"buffer":0,
			"byteLength":16,
			"byteOffset":212048
		},
		{
			"buffer":0,
			"byteLength":12,
			"byteOffset":212064
		},
		{
			"buffer":0,
			"byteLength":8,
			"byteOffset":212076
		},
		{
			"buffer":0,
			"byteLength":24,
			"byteOffset":212084
		},
		{
			"buffer":0,
			"byteLength":32,
			"byteOffset":212108
		},
		{
			"buffer":0,
			"byteLength":160,
			"byteOffset":212140
		},
		{
			"buffer":0,
			"byteLength":480,
			"byteOffset":212300
		}
	],
	"samplers":[
		{
			"magFilter":9729,
			"minFilter":9987
		}
	],
	"buffers":[
		{
			"byteLength":212780,
			"uri":"D..bin"
		}
	]
}
